<svg width="83" height="46" viewBox="0 0 83 46" fill="none" xmlns="http://www.w3.org/2000/svg">
<path d="M1.1 22V7.6H7.02C12.16 7.6 14.44 10.7 14.44 14.8C14.44 18.9 12.16 22 7.02 22H1.1ZM4.72 18.92H7.02C9.66 18.92 10.68 17.1 10.68 14.8C10.68 12.5 9.66 10.68 7.02 10.68H4.72V18.92ZM15.8614 22V11.6H19.2014V22H15.8614ZM15.8614 10.24V7.6H19.2014V10.24H15.8614ZM25.4577 22.24C22.4377 22.24 20.5577 21.28 20.3777 18.56H23.5777C23.7177 19.76 24.4577 20.08 25.6177 20.08C26.4777 20.08 27.1977 19.76 27.1977 19.18C27.1977 18.6 26.9177 18.34 24.9177 18C21.5977 17.42 20.5377 16.4 20.5377 14.66C20.5377 12.54 22.3777 11.36 25.3177 11.36C28.6777 11.36 30.1177 12.88 30.1977 15H27.1777C27.1177 13.78 26.1977 13.52 25.3177 13.52C24.3977 13.52 23.7977 13.86 23.7977 14.44C23.7977 15.02 24.2377 15.28 26.1977 15.58C29.4977 16.08 30.4977 17.2 30.4977 18.94C30.4977 21.1 28.4377 22.24 25.4577 22.24ZM31.7013 22V7.6H35.0413V12.88C35.7613 12 36.8213 11.36 38.2213 11.36C40.3813 11.36 41.9213 12.68 41.9213 15.74V22H38.5813V16.16C38.5813 15.1 38.2213 14.22 36.9413 14.22C35.8213 14.22 35.0413 15.02 35.0413 16.38V22H31.7013Z" fill="#193133"/>
<path d="M1.1 39V24.6H7.02C12.16 24.6 14.44 27.7 14.44 31.8C14.44 35.9 12.16 39 7.02 39H1.1ZM4.72 35.92H7.02C9.66 35.92 10.68 34.1 10.68 31.8C10.68 29.5 9.66 27.68 7.02 27.68H4.72V35.92ZM20.8614 39.24C17.3614 39.24 15.4414 36.88 15.4414 33.8C15.4414 30.72 17.3614 28.36 20.8614 28.36C24.3614 28.36 26.2814 30.56 26.2814 34.2V34.8H18.6814C18.9214 36.06 19.6814 36.8 20.8614 36.8C21.9614 36.8 22.5414 36.44 22.9414 35.8H26.1214C25.4414 37.86 23.5814 39.24 20.8614 39.24ZM18.7014 32.7H23.0214C22.7614 31.5 22.0014 30.8 20.8614 30.8C19.7214 30.8 18.9614 31.5 18.7014 32.7ZM27.6973 24.6H31.0373V35.72C31.0373 36.3 31.2373 36.6 31.9573 36.6H33.2973V39H31.0173C29.3173 39 27.6973 38.64 27.6973 36.04V24.6ZM34.67 39V28.6H38.01V39H34.67ZM34.67 27.24V24.6H38.01V27.24H34.67ZM44.6463 43.24C41.5263 43.24 39.8063 41.76 39.7263 39.42H43.0063C43.0863 40.36 43.8263 40.74 44.8063 40.74C45.7863 40.74 46.8663 40.36 46.8663 38.74V37.44C46.2063 38.24 45.2263 38.72 43.9062 38.72C40.9663 38.72 39.4063 36.46 39.4063 33.54C39.4063 30.6 40.9663 28.36 43.9062 28.36C45.2863 28.36 46.2863 28.88 46.9463 29.74V28.6H50.2263V38.74C50.2263 41.76 47.7463 43.24 44.6463 43.24ZM42.7863 33.54C42.7863 35.16 43.3863 36.16 44.8463 36.16C46.3063 36.16 46.9063 35.16 46.9063 33.54C46.9063 31.92 46.3063 30.92 44.8463 30.92C43.3863 30.92 42.7863 31.92 42.7863 33.54ZM52.0723 39V24.6H55.4123V29.88C56.1323 29 57.1923 28.36 58.5923 28.36C60.7523 28.36 62.2923 29.68 62.2923 32.74V39H58.9523V33.16C58.9523 32.1 58.5923 31.22 57.3123 31.22C56.1923 31.22 55.4123 32.02 55.4123 33.38V39H52.0723ZM65.1836 25.4H68.5236V28.6H71.0036V31H68.5236V35.72C68.5236 36.3 68.7036 36.6 69.4436 36.6H71.0036V39H68.5036C66.7836 39 65.1836 38.64 65.1836 36.04V31H63.4436V28.6H65.1836V25.4ZM76.8248 39.24C73.8048 39.24 71.9248 38.28 71.7448 35.56H74.9448C75.0848 36.76 75.8248 37.08 76.9848 37.08C77.8448 37.08 78.5648 36.76 78.5648 36.18C78.5648 35.6 78.2848 35.34 76.2848 35C72.9648 34.42 71.9048 33.4 71.9048 31.66C71.9048 29.54 73.7448 28.36 76.6848 28.36C80.0448 28.36 81.4848 29.88 81.5648 32H78.5448C78.4848 30.78 77.5648 30.52 76.6848 30.52C75.7648 30.52 75.1648 30.86 75.1648 31.44C75.1648 32.02 75.6048 32.28 77.5648 32.58C80.8648 33.08 81.8648 34.2 81.8648 35.94C81.8648 38.1 79.8048 39.24 76.8248 39.24Z" fill="#193133"/>
<path d="M68.3916 22.7897C67.4159 22.9293 66.5686 22.1558 66.5552 21.1702V21.1702C66.5552 19.7042 70.0349 20.2364 69.507 17.9554L68.5249 9.43594C68.4926 9.05422 67.5752 9.04713 67.6033 9.42901L67.4539 16.724C67.3781 17.3185 65.9678 17.2201 66.0127 16.5951L65.8314 9.42082C65.8314 8.99269 64.9402 9.07916 64.9319 9.45244L64.6887 16.7702C64.6602 17.2364 63.2811 17.191 63.3099 16.7483L63.1033 9.40913C63.1033 9.07788 62.2539 9.04522 62.2361 9.36976L61.9878 16.7803C61.938 17.1611 61.1544 17.2169 60.7996 16.9883C60.5866 16.851 60.627 16.5445 60.621 16.2913L60.4594 9.43001C60.4704 9.02113 59.6316 9.04254 59.5929 9.43001L58.4813 18.3128C58.4552 20.2258 61.4283 19.6213 61.4959 21.2562V21.2562C61.4938 22.1974 60.6885 22.9425 59.7559 22.8154C49.9963 21.485 44.7222 15.6644 50.2272 10.959C56.4609 5.63098 71.8825 5.69316 77.9195 11.0707C83.1717 15.7491 77.9247 21.4254 68.3916 22.7897Z" fill="#27EAA6"/>
</svg>
