<svg width="50" height="25" viewBox="0 0 50 25" fill="none" xmlns="http://www.w3.org/2000/svg">
<path d="M31.8619 24.6714C30.3373 24.8896 29.0134 23.6809 28.9926 22.1409V22.1409C28.9926 19.8503 34.4295 20.6819 33.6047 17.1178L32.0702 3.80616C32.0197 3.20973 30.5862 3.19864 30.6302 3.79532L30.3968 15.1938C30.2782 16.1226 28.0747 15.9689 28.1448 14.9924L27.8616 3.78253C27.8616 3.11358 26.469 3.24869 26.456 3.83194L26.0761 15.2659C26.0316 15.9943 23.8767 15.9235 23.9218 15.2317L23.5989 3.76427C23.5989 3.24669 22.2718 3.19566 22.2439 3.70274L21.856 15.2817C21.7692 15.9448 20.2589 15.9771 19.8382 15.4668C19.6771 15.2713 19.7314 14.9849 19.7254 14.7316L19.4679 3.79688C19.485 3.15802 18.1744 3.19146 18.114 3.79688L16.377 17.6763C16.3362 20.6654 20.9817 19.7207 21.0873 22.2753V22.2753C21.0841 23.7459 19.8257 24.9102 18.3686 24.7115C3.11929 22.6328 -5.12154 13.538 3.48007 6.18599C13.2201 -2.1391 37.3164 -2.04193 46.7492 6.36041C54.9558 13.6704 46.7573 22.5396 31.8619 24.6714Z" fill="#27EAA6"/>
</svg>
